<svg width="24" height="24" viewBox="0 0 24 24" fill="none" xmlns="http://www.w3.org/2000/svg">
<path d="M7.875 22.5002C8.17082 22.5015 8.46396 22.4441 8.7375 22.3315C9.01105 22.2189 9.25958 22.0532 9.46876 21.844C9.67793 21.6348 9.84362 21.3863 9.95626 21.1127C10.0689 20.8392 10.1262 20.5461 10.125 20.2502V15.7502" stroke="#167FFC" stroke-width="2" stroke-linecap="round" stroke-linejoin="round"/>
<path d="M16.125 22.5002C15.8292 22.5015 15.5361 22.4441 15.2625 22.3315C14.989 22.2189 14.7404 22.0532 14.5313 21.844C14.3221 21.6348 14.1564 21.3863 14.0438 21.1127C13.9311 20.8392 13.8738 20.5461 13.875 20.2502V15.7502" stroke="#167FFC" stroke-width="2" stroke-linecap="round" stroke-linejoin="round"/>
<path d="M14.25 15.7503H15.75C16.0458 15.749 16.339 15.8064 16.6125 15.919C16.886 16.0316 17.1346 16.1973 17.3438 16.4065C17.5529 16.6157 17.7186 16.8642 17.8313 17.1378C17.9439 17.4113 18.0012 17.7044 18 18.0003V18.7503C17.9988 19.0461 18.0561 19.3392 18.1687 19.6128C18.2814 19.8863 18.4471 20.1348 18.6562 20.344C18.8654 20.5532 19.114 20.7189 19.3875 20.8315C19.661 20.9442 19.9542 21.0015 20.25 21.0003" stroke="#167FFC" stroke-width="2" stroke-linecap="round" stroke-linejoin="round"/>
<path d="M9.75 15.7503H8.25C7.95418 15.749 7.66104 15.8064 7.3875 15.919C7.11395 16.0316 6.86542 16.1973 6.65624 16.4065C6.44707 16.6157 6.28138 16.8642 6.16874 17.1378C6.05611 17.4113 5.99876 17.7044 6 18.0003V18.7503C6.00124 19.0461 5.94389 19.3392 5.83126 19.6128C5.71862 19.8863 5.55293 20.1348 5.34376 20.344C5.13458 20.5532 4.88605 20.7189 4.6125 20.8315C4.33896 20.9442 4.04582 21.0015 3.75 21.0003" stroke="#167FFC" stroke-width="2" stroke-linecap="round" stroke-linejoin="round"/>
<path d="M10.4813 6.00024C10.0406 5.31072 9.43355 4.7432 8.71594 4.34999C7.99833 3.95678 7.19328 3.75052 6.375 3.75024C6.01116 4.38003 5.79285 5.08326 5.73607 5.80837C5.67929 6.53349 5.78549 7.26212 6.04688 7.94087C5.53426 8.69654 5.25697 9.58713 5.25 10.5002V11.2502C5.25 12.4437 5.72411 13.5883 6.56802 14.4322C7.41193 15.2761 8.55653 15.7502 9.75 15.7502H14.25C15.4435 15.7502 16.5881 15.2761 17.432 14.4322C18.2759 13.5883 18.75 12.4437 18.75 11.2502V10.5002C18.743 9.58713 18.4657 8.69654 17.9531 7.94087C18.2145 7.26212 18.3207 6.53349 18.2639 5.80837C18.2072 5.08326 17.9888 4.38003 17.625 3.75024C16.8067 3.75052 16.0017 3.95678 15.2841 4.34999C14.5665 4.7432 13.9594 5.31072 13.5187 6.00024H10.4813Z" stroke="#167FFC" stroke-width="2" stroke-linecap="round" stroke-linejoin="round"/>
</svg>
