<svg width="24" height="24" viewBox="0 0 24 24" fill="none" xmlns="http://www.w3.org/2000/svg">
<path d="M11.9995 8.25058C11.9995 6.18808 13.7339 4.47246 15.7964 4.50059C16.5187 4.50892 17.2232 4.7257 17.8253 5.12484C18.4273 5.52399 18.9013 6.08853 19.1902 6.75059H22.4995L19.4714 9.77871C19.276 12.8205 17.9295 15.6737 15.7056 17.7582C13.4818 19.8427 10.5476 21.0021 7.49953 21.0006C4.49953 21.0006 3.74953 19.8756 3.74953 19.8756C3.74953 19.8756 6.74953 18.7506 8.24953 16.5006C8.24953 16.5006 2.24953 13.5006 3.74953 5.25059C3.74953 5.25059 7.49953 9.00058 11.9995 9.75058V8.25058Z" stroke="#167FFC" stroke-width="2" stroke-linecap="round" stroke-linejoin="round"/>
</svg>
